<svg xmlns="http://www.w3.org/2000/svg" version="1.1" xmlns:xlink="http://www.w3.org/1999/xlink" xmlns:svgjs="http://svgjs.dev/svgjs" viewBox="0 0 6.006790070523272 1.7479999621302693"><g transform="matrix(1,0,0,1,1.8336752824300535,0.28824998106513466)"><g><path d=" M 0.228 1.1715 Q 0.195 1.1715 0.17250000000000001 1.149 Q 0.15 1.1265 0.15 1.0935 L 0.15 0.07800000000000007 Q 0.15 0.04349999999999987 0.17250000000000001 0.021749999999999936 Q 0.195 0 0.228 0 L 0.498 0 Q 0.6105 0 0.6975 0.047250000000000014 Q 0.7845 0.09450000000000003 0.83325 0.17699999999999994 Q 0.882 0.25949999999999995 0.882 0.369 Q 0.882 0.471 0.83325 0.5505 Q 0.7845 0.63 0.6975 0.675 Q 0.6105 0.72 0.498 0.72 L 0.306 0.72 L 0.306 1.0935 Q 0.306 1.1265 0.28425 1.149 Q 0.2625 1.1715 0.228 1.1715 M 0.8505 1.1715 Q 0.8295 1.1715 0.81225 1.1625 Q 0.795 1.1535 0.783 1.134 L 0.513 0.699 L 0.6645 0.6555 L 0.9105 1.0514999999999999 Q 0.9375 1.095 0.918 1.13325 Q 0.8985 1.1715 0.8505 1.1715 M 0.306 0.576 L 0.498 0.576 Q 0.5670000000000001 0.576 0.6195 0.54975 Q 0.672 0.5235 0.7020000000000001 0.47624999999999995 Q 0.732 0.42899999999999994 0.732 0.369 Q 0.732 0.30299999999999994 0.7020000000000001 0.252 Q 0.672 0.20099999999999996 0.6195 0.1725 Q 0.5670000000000001 0.1439999999999999 0.498 0.1439999999999999 L 0.306 0.1439999999999999 L 0.306 0.576 M 1.189528564453125 1.1715 Q 1.156528564453125 1.1715 1.134778564453125 1.14975 Q 1.113028564453125 1.128 1.113028564453125 1.095 L 1.113028564453125 0.4275 Q 1.113028564453125 0.393 1.134778564453125 0.372 Q 1.156528564453125 0.351 1.189528564453125 0.351 Q 1.224028564453125 0.351 1.2450285644531252 0.372 Q 1.266028564453125 0.393 1.266028564453125 0.4275 L 1.266028564453125 1.095 Q 1.266028564453125 1.128 1.2450285644531252 1.14975 Q 1.224028564453125 1.1715 1.189528564453125 1.1715 M 1.189528564453125 0.21749999999999992 Q 1.149028564453125 0.21749999999999992 1.119778564453125 0.18824999999999992 Q 1.090528564453125 0.15900000000000003 1.090528564453125 0.11850000000000005 Q 1.090528564453125 0.07800000000000007 1.119778564453125 0.04875000000000007 Q 1.149028564453125 0.01949999999999985 1.189528564453125 0.01949999999999985 Q 1.230028564453125 0.01949999999999985 1.259278564453125 0.04875000000000007 Q 1.288528564453125 0.07800000000000007 1.288528564453125 0.11850000000000005 Q 1.288528564453125 0.15900000000000003 1.259278564453125 0.18824999999999992 Q 1.230028564453125 0.21749999999999992 1.189528564453125 0.21749999999999992 M 1.8435314941406251 1.17 Q 1.797031494140625 1.17 1.771531494140625 1.1205 L 1.453531494140625 0.44999999999999996 Q 1.441531494140625 0.4245 1.4512814941406251 0.39974999999999994 Q 1.461031494140625 0.375 1.489531494140625 0.36149999999999993 Q 1.515031494140625 0.348 1.541281494140625 0.357 Q 1.567531494140625 0.366 1.581031494140625 0.39149999999999996 L 1.878031494140625 1.032 L 1.806031494140625 1.032 L 2.100031494140625 0.39149999999999996 Q 2.113531494140625 0.366 2.141281494140625 0.357 Q 2.169031494140625 0.348 2.197531494140625 0.36149999999999993 Q 2.224531494140625 0.37349999999999994 2.233531494140625 0.399 Q 2.242531494140625 0.4245 2.230531494140625 0.44999999999999996 L 1.912531494140625 1.1205 Q 1.890031494140625 1.17 1.8435314941406251 1.17 M 2.758462646484375 1.1775 Q 2.633962646484375 1.1775 2.5372126464843747 1.12425 Q 2.440462646484375 1.071 2.3857126464843748 0.97725 Q 2.330962646484375 0.8835 2.330962646484375 0.762 Q 2.330962646484375 0.639 2.382712646484375 0.54525 Q 2.434462646484375 0.4515 2.525962646484375 0.39825 Q 2.617462646484375 0.345 2.735962646484375 0.345 Q 2.852962646484375 0.345 2.9369626464843748 0.39674999999999994 Q 3.020962646484375 0.4485 3.065212646484375 0.53925 Q 3.109462646484375 0.63 3.109462646484375 0.7484999999999999 Q 3.109462646484375 0.7769999999999999 3.089962646484375 0.79575 Q 3.070462646484375 0.8145 3.040462646484375 0.8145 L 2.435962646484375 0.8145 L 2.435962646484375 0.6944999999999999 L 3.035962646484375 0.6944999999999999 L 2.974462646484375 0.7364999999999999 Q 2.972962646484375 0.6615 2.944462646484375 0.60225 Q 2.915962646484375 0.5429999999999999 2.863462646484375 0.5085 Q 2.810962646484375 0.474 2.735962646484375 0.474 Q 2.650462646484375 0.474 2.589712646484375 0.5115 Q 2.528962646484375 0.5489999999999999 2.497462646484375 0.61425 Q 2.465962646484375 0.6795 2.465962646484375 0.762 Q 2.465962646484375 0.8445 2.5034626464843748 0.909 Q 2.540962646484375 0.9735 2.6069626464843747 1.011 Q 2.672962646484375 1.0485 2.758462646484375 1.0485 Q 2.804962646484375 1.0485 2.853712646484375 1.03125 Q 2.902462646484375 1.014 2.932462646484375 0.9915 Q 2.954962646484375 0.975 2.9812126464843747 0.97425 Q 3.007462646484375 0.9735 3.026962646484375 0.99 Q 3.0524626464843747 1.0125 3.0539626464843748 1.0394999999999999 Q 3.055462646484375 1.0665 3.0299626464843747 1.086 Q 2.978962646484375 1.1265 2.903212646484375 1.152 Q 2.827462646484375 1.1775 2.758462646484375 1.1775 M 3.392920166015625 0.6585 Q 3.392920166015625 0.5685 3.4371701660156253 0.49724999999999997 Q 3.481420166015625 0.42599999999999993 3.556420166015625 0.384 Q 3.631420166015625 0.34199999999999997 3.721420166015625 0.34199999999999997 Q 3.8114201660156253 0.34199999999999997 3.855670166015625 0.37124999999999997 Q 3.899920166015625 0.40049999999999997 3.889420166015625 0.44099999999999995 Q 3.884920166015625 0.46199999999999997 3.872170166015625 0.47324999999999995 Q 3.8594201660156253 0.48449999999999993 3.842920166015625 0.48749999999999993 Q 3.826420166015625 0.49049999999999994 3.806920166015625 0.486 Q 3.710920166015625 0.4665 3.6344201660156252 0.483 Q 3.557920166015625 0.49949999999999994 3.513670166015625 0.5445 Q 3.469420166015625 0.5895 3.469420166015625 0.6585 L 3.392920166015625 0.6585 M 3.394420166015625 1.1715 Q 3.358420166015625 1.1715 3.338920166015625 1.15275 Q 3.3194201660156253 1.134 3.3194201660156253 1.0965 L 3.3194201660156253 0.42599999999999993 Q 3.3194201660156253 0.39 3.338920166015625 0.37049999999999994 Q 3.358420166015625 0.351 3.394420166015625 0.351 Q 3.431920166015625 0.351 3.450670166015625 0.36975 Q 3.469420166015625 0.38849999999999996 3.469420166015625 0.42599999999999993 L 3.469420166015625 1.0965 Q 3.469420166015625 1.1325 3.450670166015625 1.152 Q 3.431920166015625 1.1715 3.394420166015625 1.1715" fill="#ffffff" fill-rule="nonzero"></path></g><g></g><g clip-path="url(#SvgjsClipPath1001)"><g clip-path="url(#SvgjsClipPath1000864fc188-6a14-46d5-92e2-f4e9ed05a33f)"><path d=" M -1.574015084180585 0.8263372817338137 C -1.574015084180585 0.6960324131593565 -1.4021821599303659 0.6259008497477379 -1.1631839619596596 0.6612844482061697 L -0.6911201454004932 0.73205164512303 C -0.5264910675430103 0.7566294739923561 -0.4046613123717693 0.7098044724395836 -0.40021187783508383 0.6201801482005691 C -0.40021187783508383 0.562125621388533 -0.40021187783508383 0.44834722395035015 -0.40021187783508383 0.3447389625960281 C -0.40021187783508383 0.43796521003140887 -0.5235247778518823 0.4871208677700678 -0.6913320232355737 0.46190740539549663 L -1.1633958397947404 0.39114020847863623 C -1.4023940377654465 0.3557566100202077 -1.5742269620156655 0.4258881734318264 -1.5742269620156655 0.5561930420062803 Z" fill="#ffffff" transform="matrix(1,0,0,1,0,0)" fill-rule="evenodd"></path></g><g clip-path="url(#SvgjsClipPath1000864fc188-6a14-46d5-92e2-f4e9ed05a33f)"><path d=" M -1.574015084180585 0.45258478065195823 C -1.574015084180585 0.32227991207750434 -1.4021821599303659 0.25214834866588565 -1.1631839619596596 0.2875319471243175 L -0.6911201454004932 0.3582991440411746 C -0.5264910675430103 0.38287697291050404 -0.4046613123717693 0.33711136053313423 -0.40021187783508383 0.24642764711871362 C -0.40021187783508383 0.18837312030668074 -0.40021187783508383 0.07459472286849465 -0.40021187783508383 -0.029013538485824067 C -0.40021187783508383 0.06421270894955673 -0.5235247778518823 0.11315648885313506 -0.6913320232355737 0.08815490431364448 L -1.1633958397947404 0.017387707396784094 C -1.4023940377654465 -0.017995891061644433 -1.5742269620156655 0.05213567234997424 -1.5742269620156655 0.18244054092442813 Z" fill="#ffffff" transform="matrix(1,0,0,1,0,0)" fill-rule="evenodd"></path></g><g clip-path="url(#SvgjsClipPath1000864fc188-6a14-46d5-92e2-f4e9ed05a33f)"><path d=" M -1.574015084180585 1.2000897828156658 C -1.574015084180585 1.069784914241212 -1.4021821599303659 0.9996533508295933 -1.1631839619596596 1.0350369492880218 L -0.6911201454004932 1.1058041462048822 C -0.5264910675430103 1.1305938529092923 -0.4046613123717693 1.084616362696842 -0.40021187783508383 0.9939326492824212 C -0.40021187783508383 0.936090000305469 -0.40021187783508383 0.8220997250322023 -0.40021187783508383 0.7184914636778802 C -0.40021187783508383 0.8115058332781805 -0.5235247778518823 0.8606614910168394 -0.6913320232355737 0.8354480286422715 L -1.1633958397947404 0.7646808317254111 C -1.4023940377654465 0.7292972332669826 -1.5742269620156655 0.7994287966786013 -1.5742269620156655 0.9297336652530552 Z" fill="#ffffff" transform="matrix(1,0,0,1,0,0)" fill-rule="evenodd"></path></g></g></g><defs><clipPath id="SvgjsClipPath1001"><path d=" M -1.574015084180585 -0.028589782815666265 h 1.174015084180585 v 1.2286795656313325 h -1.174015084180585 Z"></path></clipPath><clipPath id="SvgjsClipPath1000864fc188-6a14-46d5-92e2-f4e9ed05a33f"><path d=" M -1.574015084180585 -0.028589782815666265 L -0.3999999999999999 -0.028589782815666265 L -0.3999999999999999 1.2000897828156663 L -1.5740150841805851 1.2000897828156663 Z"></path></clipPath></defs></svg>